<svg width="16" height="16" viewBox="0 0 12 12" fill="none" xmlns="http://www.w3.org/2000/svg">
<g clip-path="url(#clip0_4_117)">
<path fill="#EEEEEE" d="M6.375 2.01525C6.8655 1.4985 7.7115 1.35075 8.709 1.45125C9.6345 1.54425 10.5863 1.8435 11.25 2.121V9.56325C10.5615 9.30075 9.66975 9.04425 8.78475 8.95575C7.96425 8.8725 7.07625 8.9265 6.375 9.32475V2.01525ZM6 1.33725C5.26125 0.702002 4.19025 0.607502 3.21525 0.705002C2.07975 0.819752 0.93375 1.209 0.21975 1.53375C0.154237 1.56355 0.0986815 1.61157 0.0597158 1.67208C0.02075 1.73259 1.99286e-05 1.80303 0 1.875L0 10.125C1.73715e-05 10.1877 0.0157779 10.2495 0.0458378 10.3046C0.0758978 10.3596 0.119296 10.4063 0.172058 10.4402C0.22482 10.4742 0.285258 10.4944 0.347837 10.4989C0.410417 10.5035 0.473136 10.4922 0.53025 10.4663C1.19175 10.1663 2.2575 9.8055 3.29025 9.70125C4.347 9.59475 5.23275 9.7665 5.7075 10.359C5.74264 10.4028 5.78716 10.4381 5.83779 10.4624C5.88841 10.4867 5.94385 10.4993 6 10.4993C6.05615 10.4993 6.11158 10.4867 6.16221 10.4624C6.21284 10.4381 6.25736 10.4028 6.2925 10.359C6.76725 9.7665 7.653 9.59475 8.709 9.70125C9.7425 9.8055 10.809 10.1663 11.4698 10.4663C11.5269 10.4922 11.5896 10.5035 11.6522 10.4989C11.7147 10.4944 11.7752 10.4742 11.8279 10.4402C11.8807 10.4063 11.9241 10.3596 11.9542 10.3046C11.9842 10.2495 12 10.1877 12 10.125V1.875C12 1.80303 11.9792 1.73259 11.9403 1.67208C11.9013 1.61157 11.8458 1.56355 11.7802 1.53375C11.0662 1.209 9.92025 0.819752 8.78475 0.705002C7.80975 0.606752 6.73875 0.702002 6 1.33725Z"/>
</g>
<defs>
<clipPath id="clip0_4_117">
<rect width="12" height="12" fill="white"/>
</clipPath>
</defs>
</svg>
