<?xml version="1.0" encoding="utf-8"?>
<!-- Generator: Adobe Illustrator 27.3.1, SVG Export Plug-In . SVG Version: 6.00 Build 0)  -->
<svg version="1.1" id="Слой_1" xmlns="http://www.w3.org/2000/svg" xmlns:xlink="http://www.w3.org/1999/xlink" x="0px" y="0px"
	 viewBox="0 0 16 16" style="enable-background:new 0 0 16 16;" xml:space="preserve">
<style type="text/css">
	.st0{fill-rule:evenodd;clip-rule:evenodd;fill:#EE7202;}
	.st1{fill-rule:evenodd;clip-rule:evenodd;fill:#4C76BA;}
	.st2{fill-rule:evenodd;clip-rule:evenodd;fill:#2FAC66;}
	.st3{fill-rule:evenodd;clip-rule:evenodd;fill:#F39200;}
</style>
<path class="st0" d="M4.6,12.4c0-0.3,0.3-0.6,0.6-0.6h10.3c0.3,0,0.6,0.3,0.6,0.6c0,0.3-0.3,0.6-0.6,0.6H5.1
	C4.8,13,4.6,12.7,4.6,12.4z"/>
<path class="st1" d="M4.6,7.8c0-0.3,0.3-0.6,0.6-0.6h10.3c0.3,0,0.6,0.3,0.6,0.6c0,0.3-0.3,0.6-0.6,0.6H5.1C4.8,8.4,4.6,8.1,4.6,7.8
	z"/>
<path class="st2" d="M4.6,3.3c0-0.3,0.3-0.6,0.6-0.6h10.3c0.3,0,0.6,0.3,0.6,0.6s-0.3,0.6-0.6,0.6H5.1C4.8,3.8,4.6,3.6,4.6,3.3z"/>
<path class="st2" d="M3.3,1.7c0.2,0.2,0.2,0.6,0,0.8c0,0,0,0,0,0L1.5,4.2C1.3,4.4,1,4.5,0.7,4.2c0,0,0,0,0,0L0.2,3.7
	c-0.2-0.2-0.2-0.6,0-0.8s0.6-0.2,0.8,0l0,0L1.1,3l1.3-1.3C2.7,1.5,3,1.5,3.3,1.7C3.3,1.7,3.3,1.7,3.3,1.7z"/>
<path class="st1" d="M3.3,6.3c0.2,0.2,0.2,0.6,0,0.8c0,0,0,0,0,0L1.5,8.8C1.3,9,1,9,0.7,8.8c0,0,0,0,0,0L0.2,8.2
	c-0.2-0.2-0.2-0.6,0-0.8s0.6-0.2,0.8,0l0.2,0.2l1.3-1.3C2.7,6.1,3,6.1,3.3,6.3C3.3,6.3,3.3,6.3,3.3,6.3z"/>
<path class="st3" d="M3.3,10.8c0.2,0.2,0.2,0.6,0,0.8c0,0,0,0,0,0l-1.7,1.7c-0.2,0.2-0.6,0.2-0.8,0c0,0,0,0,0,0l-0.6-0.6
	c-0.2-0.2-0.2-0.6,0-0.8s0.6-0.2,0.8,0l0.2,0.2l1.3-1.3C2.7,10.6,3,10.6,3.3,10.8C3.3,10.8,3.3,10.8,3.3,10.8z"/>
</svg>
