<svg width="18" height="18" viewBox="0 0 14 10" fill="none" xmlns="http://www.w3.org/2000/svg">
<path fill="#EEEEEE" d="M0.04375 1.20944C0.131966 0.865856 0.348823 0.559077 0.658806 0.339351C0.968789 0.119625 1.35352 -2.37179e-05 1.75 3.52655e-09H12.25C12.6465 -2.37179e-05 13.0312 0.119625 13.3412 0.339351C13.6512 0.559077 13.868 0.865856 13.9563 1.20944L7 4.98867L0.04375 1.20944ZM0 2.09767V7.623L5.07762 4.85567L0 2.09767ZM5.91587 5.31222L0.167125 8.44433C0.309161 8.71056 0.533336 8.93544 0.813559 9.09283C1.09378 9.25021 1.41853 9.33362 1.75 9.33333H12.25C12.5814 9.3334 12.906 9.24981 13.1861 9.09229C13.4662 8.93477 13.6902 8.7098 13.832 8.44356L8.08325 5.31144L7 5.90022L5.91587 5.31222ZM8.92237 4.85644L14 7.623V2.09767L8.92237 4.85567V4.85644Z"/>
</svg>
